<?xml version="1.0" encoding="utf-8"?>
<!-- Generator: Adobe Illustrator 16.0.0, SVG Export Plug-In . SVG Version: 6.00 Build 0)  -->
<!DOCTYPE svg PUBLIC "-//W3C//DTD SVG 1.1//EN" "http://www.w3.org/Graphics/SVG/1.1/DTD/svg11.dtd">
<svg version="1.1" id="Laag_1" xmlns="http://www.w3.org/2000/svg" xmlns:xlink="http://www.w3.org/1999/xlink" x="0px" y="0px"
	 width="200px" height="200px" viewBox="0 0 200 200" enable-background="new 0 0 200 200" xml:space="preserve">
<path d="M76.109,0C56.576,0,40.742,15.834,40.742,35.366v45.208v23.61v14.333v57.871V200H52.79v-23.612v-57.871h90.622
	c8.753,0,15.847-7.095,15.847-15.846V0H76.109z M115.266,49.223h-10.036v25.301c0,2.875-2.354,5.227-5.229,5.227
	c-2.875,0-5.229-2.352-5.229-5.227V49.223H84.735c-2.876,0-5.228-2.352-5.228-5.229c0-2.875,2.352-5.227,5.228-5.227h30.53
	c2.876,0,5.228,2.352,5.228,5.227C120.493,46.871,118.142,49.223,115.266,49.223z"/>
</svg>
