<svg width="161" height="161" viewBox="0 0 161 161" fill="none" xmlns="http://www.w3.org/2000/svg">
<path fill-rule="evenodd" clip-rule="evenodd" d="M161 80.5C161 86.3304 160.38 92.0161 159.203 97.4947C158.849 95.5638 157.93 93.7652 156.541 92.3383C155.665 91.435 154.616 90.7189 153.455 90.2333C152.295 89.7477 151.048 89.5029 149.79 89.5135L149.874 89.5418C147.3 89.579 144.844 90.6338 143.044 92.4757C141.245 94.3177 140.247 96.797 140.27 99.372C140.222 100.664 140.448 101.952 140.935 103.15C141.422 104.348 142.158 105.429 143.095 106.321C143.951 107.234 144.99 107.956 146.143 108.443C147.296 108.93 148.538 109.169 149.79 109.146C151.049 109.168 152.3 108.929 153.462 108.443C154.624 107.956 155.673 107.234 156.541 106.321C156.664 106.196 156.783 106.068 156.898 105.937C146.251 137.93 116.07 161 80.5 161C36.0411 161 0 124.959 0 80.5C0 36.0411 36.0411 0 80.5 0C124.959 0 161 36.0411 161 80.5ZM40.95 95.05C39.0545 95.0169 37.165 94.8281 35.3004 94.4852L35.3852 79.7113C37.3702 79.0884 39.4348 78.7554 41.515 78.7227C44.0433 78.6584 46.52 79.4441 48.5488 80.9542C49.3924 81.695 50.0607 82.614 50.5053 83.6449C50.9499 84.6758 51.1596 85.7928 51.1194 86.9147C51.137 88.0461 50.8909 89.166 50.4006 90.1859C49.9103 91.2057 49.1892 92.0973 48.2945 92.7902C46.1981 94.4028 43.5904 95.2052 40.95 95.05ZM35.3004 53.6666H19.1143V108.524H45.5545C53.125 108.411 58.6333 106.067 62.1361 101.519C65.4213 97.5432 67.228 92.5523 67.249 87.3949C67.348 84.4489 66.8394 81.514 65.7546 78.7732C64.6699 76.0324 63.0324 73.5444 60.9442 71.4641C58.8559 69.3838 56.3616 67.7558 53.6167 66.6815C50.8718 65.6073 47.9351 65.1097 44.9895 65.22C41.6782 65.2167 38.3944 65.8199 35.3004 66.9996V53.6666ZM85.6094 87.2254C85.5616 88.3285 85.7513 89.4289 86.1655 90.4523C86.5797 91.4757 87.2089 92.3982 88.0104 93.1575C88.823 93.9454 89.7891 94.5577 90.8485 94.9562C91.908 95.3547 93.0381 95.5309 94.1685 95.4738C95.3069 95.5254 96.444 95.3468 97.5118 94.9488C98.5796 94.5508 99.5562 93.9416 100.383 93.1575C101.166 92.3867 101.779 91.4608 102.182 90.4392C102.586 89.4176 102.772 88.323 102.728 87.2254C102.771 86.1238 102.584 85.0252 102.181 83.9992C101.777 82.9733 101.165 82.0423 100.383 81.2651C99.5539 80.4861 98.5763 79.8819 97.5086 79.4887C96.4409 79.0956 95.3049 78.9217 94.1685 78.977C93.0415 78.9293 91.9162 79.107 90.8587 79.5C89.8013 79.8929 88.8329 80.493 88.0104 81.2651C87.2111 82.032 86.5838 82.9598 86.1698 83.9873C85.7559 85.0148 85.5649 86.1186 85.6094 87.2254ZM69.4232 87.2254C69.3233 81.5931 71.4559 76.15 75.3553 72.0845C79.31 67.6213 85.5811 65.333 94.1685 65.22C103.095 65.3895 109.488 67.7719 113.349 72.3669C117.025 76.4384 119.041 81.7402 118.999 87.2254C119.05 90.0239 118.548 92.805 117.52 95.4085C116.492 98.0119 114.96 100.386 113.01 102.395C108.961 106.858 102.756 109.136 94.3945 109.231C85.5811 109.231 79.197 106.688 75.2705 102.084C71.5654 98.0303 69.5451 92.7167 69.6209 87.2254H69.4232ZM121.004 53.6666H137.219V108.553H121.004V53.6666Z" fill="#E5E5E5"/>
</svg>
